<mxfile host="app.diagrams.net" modified="2023-07-02T15:36:14.882Z" agent="Mozilla/5.0 (Macintosh; Intel Mac OS X 10_15_7) AppleWebKit/537.36 (KHTML, like Gecko) Chrome/114.0.0.0 Safari/537.36" etag="4TdorqWB9u7K1F4Yr_oa" version="21.5.2" type="github">
  <diagram name="第 1 页" id="45qfrBvrJsaGVCni0OFB">
    <mxGraphModel dx="769" dy="597" grid="1" gridSize="10" guides="1" tooltips="1" connect="1" arrows="1" fold="1" page="1" pageScale="1" pageWidth="827" pageHeight="1169" math="0" shadow="0">
      <root>
        <mxCell id="0" />
        <mxCell id="1" parent="0" />
        <mxCell id="-rmpIwSdyVrjzsUK7rlI-62" value="" style="rounded=0;whiteSpace=wrap;html=1;fillColor=#e1d5e7;strokeColor=#9673a6;" parent="1" vertex="1">
          <mxGeometry x="130" y="510" width="510" height="100" as="geometry" />
        </mxCell>
        <mxCell id="-rmpIwSdyVrjzsUK7rlI-3" value="" style="rounded=0;whiteSpace=wrap;html=1;fillColor=#f8cecc;strokeColor=#b85450;" parent="1" vertex="1">
          <mxGeometry x="130" y="350" width="460" height="100" as="geometry" />
        </mxCell>
        <mxCell id="-rmpIwSdyVrjzsUK7rlI-4" value="领域层" style="text;html=1;strokeColor=none;fillColor=none;align=center;verticalAlign=middle;whiteSpace=wrap;rounded=0;" parent="1" vertex="1">
          <mxGeometry x="330" y="360" width="60" height="30" as="geometry" />
        </mxCell>
        <mxCell id="-rmpIwSdyVrjzsUK7rlI-27" value="" style="rounded=0;whiteSpace=wrap;html=1;" parent="1" vertex="1">
          <mxGeometry x="150" y="380" width="140" height="60" as="geometry" />
        </mxCell>
        <mxCell id="-rmpIwSdyVrjzsUK7rlI-28" value="领域层服务" style="rounded=0;whiteSpace=wrap;html=1;" parent="1" vertex="1">
          <mxGeometry x="450" y="370" width="120" height="60" as="geometry" />
        </mxCell>
        <mxCell id="-rmpIwSdyVrjzsUK7rlI-30" value="聚合" style="text;html=1;strokeColor=none;fillColor=none;align=center;verticalAlign=middle;whiteSpace=wrap;rounded=0;" parent="1" vertex="1">
          <mxGeometry x="190" y="380" width="60" height="30" as="geometry" />
        </mxCell>
        <mxCell id="-rmpIwSdyVrjzsUK7rlI-31" value="实体" style="rounded=0;whiteSpace=wrap;html=1;" parent="1" vertex="1">
          <mxGeometry x="160" y="410" width="50" height="20" as="geometry" />
        </mxCell>
        <mxCell id="-rmpIwSdyVrjzsUK7rlI-33" value="值对象" style="rounded=0;whiteSpace=wrap;html=1;" parent="1" vertex="1">
          <mxGeometry x="220" y="410" width="50" height="20" as="geometry" />
        </mxCell>
        <mxCell id="-rmpIwSdyVrjzsUK7rlI-38" value="" style="html=1;shadow=0;dashed=0;align=center;verticalAlign=middle;shape=mxgraph.arrows2.twoWayArrow;dy=0.7;dx=23.5;rotation=90;fillColor=#ffe6cc;strokeColor=#d79b00;" parent="1" vertex="1">
          <mxGeometry x="183.5" y="451.25" width="72.5" height="40" as="geometry" />
        </mxCell>
        <mxCell id="-rmpIwSdyVrjzsUK7rlI-46" value="" style="rounded=0;whiteSpace=wrap;html=1;strokeColor=#9673a6;fillColor=#e1d5e7;" parent="1" vertex="1">
          <mxGeometry x="640" y="180" width="100" height="430" as="geometry" />
        </mxCell>
        <mxCell id="-rmpIwSdyVrjzsUK7rlI-1" value="展现层" style="rounded=0;whiteSpace=wrap;html=1;fillColor=#dae8fc;strokeColor=#6c8ebf;" parent="1" vertex="1">
          <mxGeometry x="130" y="40" width="460" height="70" as="geometry" />
        </mxCell>
        <mxCell id="-rmpIwSdyVrjzsUK7rlI-21" value="数据库" style="rounded=0;whiteSpace=wrap;html=1;" parent="1" vertex="1">
          <mxGeometry x="150" y="542.5" width="90" height="35" as="geometry" />
        </mxCell>
        <mxCell id="-rmpIwSdyVrjzsUK7rlI-22" value="消息" style="rounded=0;whiteSpace=wrap;html=1;" parent="1" vertex="1">
          <mxGeometry x="270" y="542.5" width="90" height="35" as="geometry" />
        </mxCell>
        <mxCell id="-rmpIwSdyVrjzsUK7rlI-23" value="缓存" style="rounded=0;whiteSpace=wrap;html=1;" parent="1" vertex="1">
          <mxGeometry x="390" y="542.5" width="90" height="35" as="geometry" />
        </mxCell>
        <mxCell id="-rmpIwSdyVrjzsUK7rlI-24" value="文件" style="rounded=0;whiteSpace=wrap;html=1;" parent="1" vertex="1">
          <mxGeometry x="510" y="542.5" width="90" height="35" as="geometry" />
        </mxCell>
        <mxCell id="-rmpIwSdyVrjzsUK7rlI-25" value="&lt;font style=&quot;font-size: 20px;&quot;&gt;基础设施层&lt;/font&gt;" style="text;html=1;align=center;verticalAlign=middle;whiteSpace=wrap;rounded=0;rotation=-90;" parent="1" vertex="1">
          <mxGeometry x="560" y="340" width="260" height="50" as="geometry" />
        </mxCell>
        <mxCell id="-rmpIwSdyVrjzsUK7rlI-26" value="......" style="text;html=1;strokeColor=none;fillColor=none;align=center;verticalAlign=middle;whiteSpace=wrap;rounded=0;" parent="1" vertex="1">
          <mxGeometry x="600" y="535" width="60" height="30" as="geometry" />
        </mxCell>
        <mxCell id="-rmpIwSdyVrjzsUK7rlI-2" value="" style="rounded=0;whiteSpace=wrap;html=1;fillColor=#d5e8d4;strokeColor=#82b366;" parent="1" vertex="1">
          <mxGeometry x="130" y="200" width="460" height="90" as="geometry" />
        </mxCell>
        <mxCell id="-rmpIwSdyVrjzsUK7rlI-5" value="应用层" style="text;html=1;strokeColor=none;fillColor=none;align=center;verticalAlign=middle;whiteSpace=wrap;rounded=0;" parent="1" vertex="1">
          <mxGeometry x="330" y="200" width="60" height="30" as="geometry" />
        </mxCell>
        <mxCell id="-rmpIwSdyVrjzsUK7rlI-29" value="应用层服务" style="text;html=1;strokeColor=none;fillColor=none;align=center;verticalAlign=middle;whiteSpace=wrap;rounded=0;" parent="1" vertex="1">
          <mxGeometry x="305" y="240" width="110" height="30" as="geometry" />
        </mxCell>
        <mxCell id="-rmpIwSdyVrjzsUK7rlI-39" value="" style="html=1;shadow=0;dashed=0;align=center;verticalAlign=middle;shape=mxgraph.arrows2.twoWayArrow;dy=0.58;dx=27;rotation=0;fillColor=#ffe6cc;strokeColor=#d79b00;" parent="1" vertex="1">
          <mxGeometry x="586" y="230" width="72.5" height="33.75" as="geometry" />
        </mxCell>
        <mxCell id="-rmpIwSdyVrjzsUK7rlI-40" value="" style="html=1;shadow=0;dashed=0;align=center;verticalAlign=middle;shape=mxgraph.arrows2.twoWayArrow;dy=0.7;dx=20.5;rotation=0;fillColor=#ffe6cc;strokeColor=#d79b00;" parent="1" vertex="1">
          <mxGeometry x="590" y="390" width="60" height="37.5" as="geometry" />
        </mxCell>
        <mxCell id="-rmpIwSdyVrjzsUK7rlI-52" value="" style="endArrow=none;html=1;rounded=0;entryX=1;entryY=0;entryDx=0;entryDy=0;" parent="1" target="-rmpIwSdyVrjzsUK7rlI-46" edge="1">
          <mxGeometry width="50" height="50" relative="1" as="geometry">
            <mxPoint x="640" y="180" as="sourcePoint" />
            <mxPoint x="690" y="130" as="targetPoint" />
          </mxGeometry>
        </mxCell>
        <mxCell id="-rmpIwSdyVrjzsUK7rlI-56" value="" style="html=1;shadow=0;dashed=0;align=center;verticalAlign=middle;shape=mxgraph.arrows2.twoWayArrow;dy=0.7;dx=23.5;rotation=90;fillColor=#ffe6cc;strokeColor=#d79b00;" parent="1" vertex="1">
          <mxGeometry x="308.75" y="300" width="72.5" height="40" as="geometry" />
        </mxCell>
        <mxCell id="-rmpIwSdyVrjzsUK7rlI-57" value="" style="html=1;shadow=0;dashed=0;align=center;verticalAlign=middle;shape=mxgraph.arrows2.twoWayArrow;dy=0.7;dx=23.5;rotation=90;fillColor=#ffe6cc;strokeColor=#d79b00;" parent="1" vertex="1">
          <mxGeometry x="167.5" y="133" width="72.5" height="40" as="geometry" />
        </mxCell>
        <mxCell id="-rmpIwSdyVrjzsUK7rlI-58" value="" style="html=1;shadow=0;dashed=0;align=center;verticalAlign=middle;shape=mxgraph.arrows2.twoWayArrow;dy=0.7;dx=23.5;rotation=90;fillColor=#ffe6cc;strokeColor=#d79b00;" parent="1" vertex="1">
          <mxGeometry x="450" y="133" width="72.5" height="40" as="geometry" />
        </mxCell>
        <mxCell id="-rmpIwSdyVrjzsUK7rlI-59" value="" style="html=1;shadow=0;dashed=0;align=center;verticalAlign=middle;shape=mxgraph.arrows2.twoWayArrow;dy=0.7;dx=23.5;rotation=90;fillColor=#ffe6cc;strokeColor=#d79b00;" parent="1" vertex="1">
          <mxGeometry x="475" y="453.25" width="72.5" height="40" as="geometry" />
        </mxCell>
        <mxCell id="-rmpIwSdyVrjzsUK7rlI-63" value="" style="rounded=0;whiteSpace=wrap;html=1;fillColor=#e1d5e7;strokeColor=none;" parent="1" vertex="1">
          <mxGeometry x="600" y="511" width="120" height="98" as="geometry" />
        </mxCell>
        <mxCell id="KGosyKnK43wHKvl___Ui-1" value="......" style="rounded=0;whiteSpace=wrap;html=1;" vertex="1" parent="1">
          <mxGeometry x="615" y="542.5" width="90" height="35" as="geometry" />
        </mxCell>
      </root>
    </mxGraphModel>
  </diagram>
</mxfile>
